<?xml version="1.0" encoding="iso-8859-1"?>
<!-- Generator: Adobe Illustrator 19.0.0, SVG Export Plug-In . SVG Version: 6.00 Build 0)  -->
<svg version="1.1" id="Layer_1" xmlns="http://www.w3.org/2000/svg" xmlns:xlink="http://www.w3.org/1999/xlink" x="0px" y="0px"
	 viewBox="0 0 508.4 508.4" style="enable-background:new 0 0 508.4 508.4;" xml:space="preserve">
<circle style="fill:#FD8469;" cx="254.2" cy="254" r="254"/>
<path style="fill:#FFFFFF;" d="M307.4,497.6V311.2c-3.6-2.4-6.8-6-8.4-10c-1.2-2.4-2-5.2-2.4-8.4l-4-53.6h-76.8l-2.8,40.4l0,0
	l-0.8,13.2c-0.4,8-5.2,14.8-11.6,18.8v185.6h106.8V497.6z"/>
<path style="fill:#E6E9EE;" d="M299,301.2L299,301.2c-64.4,50.8-85.6-19.2-86-21.6l0,0l2.8-40.4H293l4,53.6
	C297,296,297.4,298.8,299,301.2z"/>
<ellipse style="fill:#2B3B4E;" cx="254.2" cy="174.4" rx="85.2" ry="84"/>
<path style="fill:#FFFFFF;" d="M339,192c-3.2-1.6-7.2-0.8-11.2,2c0-1.6,0-3.2,0-4.8c0-50.4-33.2-68.8-73.6-68.8
	c-40.8,0-73.6,18.4-73.6,68.8c0,1.6,0,3.2,0,4.8c-4-2.8-8-4-11.2-2c-6.4,3.6-7.2,15.6-2,27.6c5.2,11.6,14.4,18.8,20.8,15.2
	c12,36.4,37.2,68,66,68s53.6-31.6,66-68c6.4,3.2,15.6-3.6,20.8-15.2C346.2,207.6,345,195.2,339,192z"/>
<path style="fill:#FFD05B;" d="M204.2,320c0,0,39.2,56.8,99.6,0c0,0,11.2,68.8-50,174C254.2,494,177.8,353.6,204.2,320z"/>
<path style="fill:#2B3B4E;" d="M438.6,428.8c0-56.8-26-73.2-42-77.6c-13.6-4-26.8-8.4-39.2-14.8c-31.2-16-50.4-27.2-53.6-30
	c0,0,0,0-0.4-0.4c-2.4-2.8-4-4-4.4-4.4c1.2,2.4,17.2,34-6.8,86c0,0-20.4,58.8-37.6,106c-17.2-47.2-37.6-106-37.6-106
	c-24-52-8-84-6.8-86c-0.4,0.4-2,2-4.4,4.4c0,0,0,0-0.4,0.4c-3.6,2.8-22.4,14-53.6,30c-12,6-24.4,11.2-37.2,14.8
	c-16,4.4-44.4,20-44.4,78c45.2,47.6,108.8,77.6,179.2,79.2c0.8,0,9.6,0,10.4,0l0,0C329.8,506.4,393.4,476.4,438.6,428.8z"/>
<path style="fill:#324A5E;" d="M254.2,249.6c-14-7.2-19.6,14.4-42,2c0,0,8.8,24.4,42,9.6c33.2,14.4,42-9.6,42-9.6
	C273.8,264,268.2,242.4,254.2,249.6z"/>
<path style="fill:#FFD05B;" d="M175,126h158.8c15.6-6,28-14.4,32.8-24c13.6-27.6-35.2-55.6-112-55.6c-77.2,0-125.6,28-112,55.6
	C147,111.6,159,120,175,126z"/>
<path style="fill:#F9B54C;" d="M175,126c50.8-16.4,108-16.4,158.8,0c0,7.2,0,14.4,0,22c-52.8,0-106,0-158.8,0
	C175,140.4,175,133.2,175,126z"/>
<path style="fill:#FFD05B;" d="M333.8,144.4c0,20.8-35.6,37.6-79.6,37.6s-79.6-16.8-79.6-37.2c0,0,35.6,1.2,79.6,1.2
	C298.2,145.6,333.8,144.4,333.8,144.4z"/>
<g>
	<rect x="218.6" y="66.4" style="fill:#324A5E;" width="14.4" height="14.4"/>
	<rect x="233" y="80.8" style="fill:#324A5E;" width="14.4" height="14.4"/>
	<rect x="247" y="66.4" style="fill:#324A5E;" width="14.4" height="14.4"/>
	<rect x="275.4" y="66.4" style="fill:#324A5E;" width="14.4" height="14.4"/>
	<rect x="261.4" y="80.8" style="fill:#324A5E;" width="14.4" height="14.4"/>
</g>
<g>
</g>
<g>
</g>
<g>
</g>
<g>
</g>
<g>
</g>
<g>
</g>
<g>
</g>
<g>
</g>
<g>
</g>
<g>
</g>
<g>
</g>
<g>
</g>
<g>
</g>
<g>
</g>
<g>
</g>
</svg>
