<svg xmlns="http://www.w3.org/2000/svg" viewBox="0 0 508.4 508.4"><circle cx="254.2" cy="254" r="254" fill="#fd8469"/><path d="M307.4 497.6V311.2c-3.6-2.4-6.8-6-8.4-10-1.2-2.4-2-5.2-2.4-8.4l-4-53.6h-76.8l-2.8 40.4-.8 13.2c-.4 8-5.2 14.8-11.6 18.8v185.6h106.8v.4z" fill="#fff"/><path d="M299 301.2c-64.4 50.8-85.6-19.2-86-21.6l2.8-40.4H293l4 53.6c0 3.2.4 6 2 8.4z" fill="#e6e9ee"/><ellipse cx="254.2" cy="174.4" rx="85.2" ry="84" fill="#2b3b4e"/><path d="M339 192c-3.2-1.6-7.2-.8-11.2 2v-4.8c0-50.4-33.2-68.8-73.6-68.8-40.8 0-73.6 18.4-73.6 68.8v4.8c-4-2.8-8-4-11.2-2-6.4 3.6-7.2 15.6-2 27.6 5.2 11.6 14.4 18.8 20.8 15.2 12 36.4 37.2 68 66 68s53.6-31.6 66-68c6.4 3.2 15.6-3.6 20.8-15.2 5.2-12 4-24.4-2-27.6z" fill="#fff"/><path d="M204.2 320s39.2 56.8 99.6 0c0 0 11.2 68.8-50 174 .4 0-76-140.4-49.6-174z" fill="#ffd05b"/><path d="M438.6 428.8c0-56.8-26-73.2-42-77.6-13.6-4-26.8-8.4-39.2-14.8-31.2-16-50.4-27.2-53.6-30l-.4-.4c-2.4-2.8-4-4-4.4-4.4 1.2 2.4 17.2 34-6.8 86l-37.6 106-37.6-106c-24-52-8-84-6.8-86l-4.8 4.8c-3.6 2.8-22.4 14-53.6 30-12 6-24.4 11.2-37.2 14.8-16 4.4-44.4 20-44.4 78 45.2 47.6 108.8 77.6 179.2 79.2h10.4c70-2 133.6-32 178.8-79.6z" fill="#2b3b4e"/><path d="M254.2 249.6c-14-7.2-19.6 14.4-42 2 0 0 8.8 24.4 42 9.6 33.2 14.4 42-9.6 42-9.6-22.4 12.4-28-9.2-42-2z" fill="#324a5e"/><path d="M175 126h158.8c15.6-6 28-14.4 32.8-24 13.6-27.6-35.2-55.6-112-55.6-77.2 0-125.6 28-112 55.6 4.4 9.6 16.4 18 32.4 24z" fill="#ffd05b"/><path d="M175 126c50.8-16.4 108-16.4 158.8 0v22H175v-22z" fill="#f9b54c"/><path d="M333.8 144.4c0 20.8-35.6 37.6-79.6 37.6s-79.6-16.8-79.6-37.2c0 0 35.6 1.2 79.6 1.2l79.6-1.6z" fill="#ffd05b"/><path d="M218.6 66.4H233v14.4h-14.4zM233 80.8h14.4v14.4H233zm14-14.4h14.4v14.4H247zm28.4 0h14.4v14.4h-14.4zm-14 14.4h14.4v14.4h-14.4z" fill="#324a5e"/></svg>